<svg aria-hidden="true" style="position: absolute; width: 0; height: 0; overflow: hidden;" version="1.1" xmlns="http://www.w3.org/2000/svg" xmlns:xlink="http://www.w3.org/1999/xlink" "xlink:href="data:image/png;">
<defs>
<symbol id="icon-Vector-3" viewBox="0 0 27 32">
<path fill="none" stroke="#fd9222" style="stroke: var(--color1, #fd9222)" stroke-linejoin="round" stroke-linecap="round" stroke-miterlimit="4" stroke-width="2.7429" d="M20.111 23.118l-14.186-8.864M9.837 7.837l14.185 8.864M9.106 25.102l11.736-19.25M25.653 14.027c-3.040-1.899-4.234-3.384-2.278-6.592l-9.626-6.015-11.736 19.25 14.185 8.864 9.454-15.507z"></path>
</symbol>
<symbol id="icon-user" viewBox="0 0 32 32">
<path stroke-linejoin="round" stroke-linecap="round" stroke-miterlimit="4" stroke-width="2.6667" d="M26.667 28v-2.667c0-1.414-0.562-2.771-1.562-3.771s-2.357-1.562-3.771-1.562h-10.667c-1.415 0-2.771 0.562-3.771 1.562s-1.562 2.357-1.562 3.771v2.667"></path>
<path stroke-linejoin="round" stroke-linecap="round" stroke-miterlimit="4" stroke-width="2.6667" d="M16 14.667c2.946 0 5.333-2.388 5.333-5.333s-2.388-5.333-5.333-5.333c-2.945 0-5.333 2.388-5.333 5.333s2.388 5.333 5.333 5.333z"></path>
</symbol>
<symbol id="icon-mail" viewBox="0 0 32 32">
<path stroke-linejoin="round" stroke-linecap="round" stroke-miterlimit="4" stroke-width="2.6667" d="M5.333 5.333h21.333c1.467 0 2.667 1.2 2.667 2.667v16c0 1.467-1.2 2.667-2.667 2.667h-21.333c-1.467 0-2.667-1.2-2.667-2.667v-16c0-1.467 1.2-2.667 2.667-2.667z"></path>
<path stroke-linejoin="round" stroke-linecap="round" stroke-miterlimit="4" stroke-width="2.6667" d="M29.333 8l-13.333 9.333-13.333-9.333"></path>
</symbol>
<symbol id="icon-x-close" viewBox="0 0 32 32">
<path stroke-linejoin="round" stroke-linecap="round" stroke-miterlimit="4" stroke-width="2.6667" d="M24 8l-16 16"></path>
<path stroke-linejoin="round" stroke-linecap="round" stroke-miterlimit="4" stroke-width="2.6667" d="M8 8l16 16"></path>
</symbol>
<symbol id="icon-twitter" viewBox="0 0 38 32">
<path stroke-linejoin="round" stroke-linecap="round" stroke-miterlimit="4" stroke-width="2.8235" d="M36.078 1.883c-1.502 1.060-3.165 1.87-4.926 2.4-0.945-1.086-2.2-1.856-3.597-2.206s-2.867-0.262-4.212 0.252c-1.345 0.513-2.5 1.427-3.308 2.618s-1.232 2.602-1.213 4.041v1.569c-2.757 0.072-5.488-0.54-7.951-1.78s-5.366-4.192-6.951-6.449c0 0-5.49 15.24 8.627 21.514-3.231 2.193-7.079 3.293-10.98 3.137 14.118 7.843 31.372 0 31.372-18.039-0.001-0.437-0.043-0.873-0.125-1.302 1.601-1.579 2.731-3.572 3.263-5.757z"></path>
</symbol>
<symbol id="icon-facebook" viewBox="0 0 19 32">
<path stroke-linejoin="round" stroke-linecap="round" stroke-miterlimit="4" stroke-width="2.5263" d="M16.842 1.965h-4.211c-1.861 0-3.646 0.739-4.962 2.055s-2.055 3.101-2.055 4.962v4.211h-4.211v5.614h4.211v11.228h5.614v-11.228h4.211l1.404-5.614h-5.614v-4.211c0-0.372 0.148-0.729 0.411-0.992s0.62-0.411 0.992-0.411h4.211v-5.614z"></path>
</symbol>
<symbol id="icon-instagram" viewBox="0 0 30 32">
<path stroke-linejoin="round" stroke-linecap="round" stroke-miterlimit="4" stroke-width="2.2857" d="M21.587 3.302h-12.698c-3.507 0-6.349 2.843-6.349 6.349v12.698c0 3.507 2.843 6.349 6.349 6.349h12.698c3.507 0 6.349-2.843 6.349-6.349v-12.698c0-3.507-2.843-6.349-6.349-6.349z"></path>
<path stroke-linejoin="round" stroke-linecap="round" stroke-miterlimit="4" stroke-width="2.2857" d="M20.317 15.2c0.157 1.057-0.024 2.136-0.516 3.084s-1.271 1.717-2.225 2.198c-0.954 0.48-2.036 0.647-3.091 0.478s-2.029-0.668-2.785-1.423c-0.755-0.756-1.253-1.73-1.423-2.785s-0.003-2.136 0.478-3.091c0.48-0.954 1.249-1.733 2.198-2.225s2.028-0.673 3.084-0.516c1.078 0.16 2.076 0.662 2.847 1.433s1.273 1.769 1.433 2.847z"></path>
<path stroke-linejoin="round" stroke-linecap="round" stroke-miterlimit="4" stroke-width="2.2857" d="M22.222 9.016h0.015"></path>
</symbol>

<symbol id="icon-phone" viewBox="0 0 32 32">
<path stroke-linejoin="round" stroke-linecap="round" stroke-miterlimit="4" stroke-width="2.9091" d="M30.546 23.157v4.364c0.002 0.405-0.081 0.806-0.244 1.177s-0.4 0.704-0.699 0.978c-0.298 0.274-0.651 0.482-1.035 0.612s-0.79 0.178-1.194 0.142c-4.476-0.486-8.775-2.016-12.553-4.465-3.514-2.233-6.494-5.213-8.727-8.727-2.458-3.795-3.988-8.115-4.465-12.611-0.036-0.402 0.011-0.808 0.14-1.19s0.336-0.734 0.608-1.033c0.272-0.298 0.604-0.537 0.973-0.7s0.769-0.248 1.173-0.248h4.364c0.706-0.007 1.39 0.243 1.925 0.703s0.885 1.099 0.984 1.798c0.184 1.396 0.526 2.768 1.018 4.087 0.196 0.521 0.238 1.086 0.122 1.63s-0.386 1.043-0.777 1.439l-1.847 1.847c2.071 3.641 5.086 6.657 8.727 8.727l1.847-1.847c0.395-0.391 0.895-0.661 1.439-0.777s1.11-0.074 1.63 0.122c1.32 0.492 2.691 0.834 4.087 1.018 0.706 0.1 1.352 0.456 1.813 1s0.706 1.239 0.689 1.953z"></path>
</symbol>
<symbol id="icon-Vector" viewBox="0 0 53 32">
<path d="M29.19 20.978c-0.331 0.333-0.724 0.598-1.157 0.778s-0.898 0.273-1.367 0.273-0.934-0.093-1.367-0.273c-0.433-0.18-0.826-0.445-1.157-0.778l-16.284-16.32c-0.331-0.333-0.724-0.598-1.157-0.778s-0.898-0.273-1.367-0.273c-0.469 0-0.934 0.093-1.367 0.273s-0.827 0.445-1.157 0.778c-0.662 0.666-1.034 1.567-1.034 2.507s0.372 1.841 1.034 2.507l16.32 16.32c2 1.997 4.711 3.119 7.538 3.119s5.538-1.122 7.538-3.119l16.32-16.32c0.657-0.662 1.027-1.556 1.031-2.489 0.003-0.468-0.087-0.932-0.264-1.365s-0.438-0.827-0.767-1.159c-0.331-0.333-0.724-0.598-1.157-0.778s-0.898-0.273-1.367-0.273c-0.469 0-0.934 0.093-1.367 0.273s-0.827 0.445-1.157 0.778l-16.284 16.32z"></path>
</symbol>
</defs>
</svg>
